# xmcd
#
# Track frame offsets: 
#        150
#        24643
#        73465
#        97728
#        134896
#        163675
#
# Disc length: 2570 seconds
#
# Revision: 0
# Processed by: cddbd v1.5.2PL0 Copyright (c) Steve Scherf et al.
# Submitted via: ExactAudioCopy v0.95b4
#
DISCID=550a0806
DTITLE=Nitin Limaye - Aradhana
DYEAR=2002
DGENRE=Bhajans
TTITLE0=Bhola Shankar Bhola
TTITLE1=Nand Ke Lala
TTITLE2=Jagdodharini Mata Durga
TTITLE3=Dhimik Dhimik Dhim
TTITLE4=Looti Lindho
TTITLE5=Shyaam Muraari
EXTD=
EXTT0=
EXTT1=
EXTT2=
EXTT3=
EXTT4=
EXTT5=
PLAYORDER=
